<svg version="1.1" xmlns="http://www.w3.org/2000/svg" xmlns:xlink="http://www.w3.org/1999/xlink" width="185.000000pt" height="140.000000pt" viewBox="0,0,256,193.71875"><g fill="#a3793a" fill-rule="nonzero" stroke="none" stroke-width="1" stroke-linecap="butt" stroke-linejoin="miter" stroke-miterlimit="10" stroke-dasharray="" stroke-dashoffset="0" font-family="none" font-weight="none" font-size="none" text-anchor="none" style="mix-blend-mode: normal"><g transform="translate(-4.84011,7.15327) scale(1.38378,1.38378)"><g transform="translate(0,140) scale(0.1,-0.1)"><path d="M904,1017c-29,-26 -49,-37 -52,-29c-2,7 -21,12 -43,12h-39v-53c0,-51 -3,-56 -46,-96c-46,-44 -54,-73 -20,-79c10,-2 29,6 42,19l24,22v-51c0,-52 0,-52 -27,-46c-16,4 -34,16 -41,26c-15,20 -52,24 -70,6c-8,-8 -11,-42 -10,-97l2,-86l5,90l6,90h30h30l3,-132l3,-133h-35c-28,0 -36,4 -39,23c-5,19 -5,19 -4,-3c2,-21 8,-26 37,-28c24,-3 38,2 47,14c11,16 17,15 90,-11c83,-29 87,-29 259,-4c73,11 76,13 160,86c65,57 84,80 82,96c-4,28 -41,34 -74,13c-13,-9 -35,-23 -49,-32l-25,-16v98v97l23,-21c28,-26 40,-27 57,-7c11,13 7,22 -25,55c-21,22 -41,38 -43,35c-3,-2 10,-16 27,-30c31,-27 42,-65 19,-65c-7,1 -67,50 -132,110l-119,109l-119,-110c-111,-103 -136,-119 -145,-92c-5,15 246,243 267,243c10,0 23,-7 30,-15c7,-9 40,-38 74,-66l61,-51l-70,67c-98,93 -94,92 -151,42zM840,972c0,-10 -13,-28 -30,-40l-30,-23v41c0,38 2,40 30,40c22,0 30,-5 30,-18zM1055,897l85,-78v-103c0,-66 -4,-106 -12,-114c-21,-21 -54,-14 -66,13c-7,14 -19,28 -27,31c-11,5 -15,23 -15,75v69h-60h-60v-60c0,-36 -4,-60 -11,-60c-6,0 -33,10 -60,21l-49,21v57v56l86,78c47,43 90,77 95,75c4,-2 47,-38 94,-81zM1010,718v-63l-50,3l-50,4v59v59h50h50zM835,679c27,-12 82,-25 124,-31c51,-6 80,-14 89,-25c21,-28 14,-34 -30,-29c-89,11 -184,15 -150,7c18,-5 79,-12 136,-16l103,-7l71,46c76,49 99,56 109,29c5,-11 -9,-30 -48,-65c-100,-90 -112,-95 -249,-113l-125,-17l-75,29l-75,29l-3,92l-3,92h39c22,0 61,-10 87,-21z"></path></g></g></g></svg>