<svg version="1.1" xmlns="http://www.w3.org/2000/svg" xmlns:xlink="http://www.w3.org/1999/xlink" width="185.000000pt" height="140.000000pt" viewBox="0,0,256,193.71875"><g fill="#a3793a" fill-rule="nonzero" stroke="none" stroke-width="1" stroke-linecap="butt" stroke-linejoin="miter" stroke-miterlimit="10" stroke-dasharray="" stroke-dashoffset="0" font-family="none" font-weight="none" font-size="none" text-anchor="none" style="mix-blend-mode: normal"><g transform="translate(-2.02209,4.42175) scale(1.38378,1.38378)"><g transform="translate(0,140) scale(0.1,-0.1)"><path d="M870,1002c-43,-24 -59,-38 -47,-40c14,-3 17,-15 17,-78v-74h35c33,0 35,2 35,35c0,32 2,35 30,35c28,0 30,-3 30,-35c0,-34 1,-35 40,-35h40v75c0,65 2,75 18,75c9,0 -14,18 -53,40c-38,22 -72,40 -75,39c-3,0 -34,-16 -70,-37zM1030,899c0,-78 0,-79 -25,-79c-23,0 -25,4 -25,41v40l-37,-3c-36,-3 -38,-5 -41,-40c-3,-33 -7,-38 -28,-38c-23,0 -24,2 -24,80v80l47,23l46,24l44,-24l43,-25z"></path><path d="M640,837c0,-3 29,-24 65,-46l64,-41l-47,-75c-35,-56 -52,-75 -64,-71c-31,7 -19,-8 27,-38c35,-21 49,-25 59,-17c11,9 30,-4 89,-59c81,-75 90,-78 154,-45c24,13 63,57 63,73c0,5 18,17 41,27c34,16 42,16 49,5c10,-16 32,-7 80,30c20,15 21,20 8,20c-15,0 -108,128 -108,148c0,4 25,23 55,41c31,19 58,38 62,44c7,12 4,10 -109,-61c-49,-30 -88,-60 -88,-67c0,-8 -26,-14 -80,-18c-88,-6 -121,-1 -114,16c2,7 -40,39 -93,72c-104,65 -113,69 -113,62zM805,728c14,-6 25,-15 25,-20c0,-5 -23,-42 -50,-83l-51,-75l-25,16c-13,9 -23,20 -22,23c5,11 93,151 95,151c1,0 14,-5 28,-12zM1156,664l48,-77l-24,-19c-27,-22 -23,-25 -84,67l-46,70l21,18c12,9 25,17 29,17c5,0 30,-34 56,-76zM870,670c12,-8 11,-13 -8,-33c-29,-31 -28,-55 4,-69c22,-10 32,-9 65,10c21,12 40,22 42,22c2,0 18,-18 36,-41c25,-31 31,-43 22,-52c-9,-9 -20,-2 -46,28c-19,22 -34,35 -35,29c0,-5 14,-23 30,-39c28,-27 41,-65 21,-65c-5,0 -28,21 -50,46c-23,26 -41,43 -41,38c1,-5 14,-25 30,-44c30,-34 39,-60 20,-60c-5,0 -28,19 -51,43c-39,40 -40,40 -15,6c26,-36 33,-59 18,-59c-4,0 -40,33 -80,73l-72,72l35,53c36,52 48,59 75,42zM1080,639c12,-16 20,-33 16,-36c-3,-3 -31,-1 -62,6c-51,10 -60,9 -89,-9c-70,-43 -121,-13 -69,41c26,27 33,29 105,29c75,0 78,-1 99,-31zM1094,583c18,-5 18,-7 -5,-24c-13,-10 -28,-19 -33,-19c-12,0 -56,41 -56,52c0,8 49,3 94,-9z"></path></g></g></g></svg>